<?xml version="1.0" encoding="iso-8859-1"?>
<!-- Uploaded to: SVG Repo, www.svgrepo.com, Generator: SVG Repo Mixer Tools -->
<svg fill="#000000" height="800px" width="800px" version="1.1" id="Layer_1" xmlns="http://www.w3.org/2000/svg" xmlns:xlink="http://www.w3.org/1999/xlink" 
	 viewBox="0 0 511.999 511.999" xml:space="preserve">
<g>
	<g>
		<path d="M485.854,58.838H198.937C196.635,26.01,169.21,0,135.807,0H79.252C44.345,0,15.946,28.399,15.946,63.305v385.388
			c0,34.908,28.399,63.305,63.306,63.305h56.554c33.403,0,60.829-26.01,63.131-58.838h286.916c5.632,0,10.199-4.567,10.199-10.199
			V69.037h0.001C496.053,63.405,491.486,58.838,485.854,58.838z M36.344,63.305c0-23.659,19.249-42.907,42.908-42.907h56.554
			c23.659,0,42.907,19.248,42.907,42.907v3.231H36.344V63.305z M36.344,86.936h142.369v18.093H36.344V86.936z M36.344,125.428
			h142.369v256.746H36.344V125.428z M36.344,402.572h142.369v18.093H36.344V402.572z M135.807,491.602H79.252
			c-23.659,0-42.908-19.248-42.908-42.907v-7.63h142.369v1.898v5.732h0.001C178.714,472.354,159.466,491.602,135.807,491.602z
			 M475.655,432.763H199.112v-1.898v-29.392h276.542V432.763z M475.655,381.074H199.112v-15.894h276.542V381.074z M475.655,344.781
			H199.112V160.62h276.542V344.781z M475.655,140.222H199.112v-13.695h276.542V140.222z M475.655,106.129H199.112V79.237h276.542
			V106.129z"/>
	</g>
</g>
<g>
	<g>
		<path d="M327.394,311.076h-5.1c-5.632,0-10.199,4.567-10.199,10.199s4.567,10.199,10.199,10.199h5.1
			c5.632,0,10.199-4.567,10.199-10.199S333.026,311.076,327.394,311.076z"/>
	</g>
</g>
<g>
	<g>
		<path d="M453.864,311.076h-92.813c-5.632,0-10.199,4.567-10.199,10.199s4.567,10.199,10.199,10.199h92.813
			c5.632,0,10.199-4.567,10.199-10.199S459.496,311.076,453.864,311.076z"/>
	</g>
</g>
</svg>